<?xml version="1.0" encoding="UTF-8" standalone="no"?>
<!-- Created with Inkscape (http://www.inkscape.org/) -->

<svg
   width="140.02899"
   height="97.040939"
   viewBox="0 0 140.02899 97.040939"
   version="1.1"
   id="svg1"
   inkscape:version="1.4 (e7c3feb100, 2024-10-09)"
   sodipodi:docname="logo_importable.svg"
   xmlns:inkscape="http://www.inkscape.org/namespaces/inkscape"
   xmlns:sodipodi="http://sodipodi.sourceforge.net/DTD/sodipodi-0.dtd"
   xmlns="http://www.w3.org/2000/svg"
   xmlns:svg="http://www.w3.org/2000/svg">
  <sodipodi:namedview
     id="namedview1"
     pagecolor="#ffffff"
     bordercolor="#000000"
     borderopacity="0.25"
     inkscape:showpageshadow="2"
     inkscape:pageopacity="0.0"
     inkscape:pagecheckerboard="0"
     inkscape:deskcolor="#d1d1d1"
     inkscape:document-units="px"
     inkscape:zoom="1.0935185"
     inkscape:cx="187.92549"
     inkscape:cy="-4.5723964"
     inkscape:window-width="1707"
     inkscape:window-height="995"
     inkscape:window-x="0"
     inkscape:window-y="0"
     inkscape:window-maximized="1"
     inkscape:current-layer="layer1" />
  <defs
     id="defs1">
    <rect
       x="504.79257"
       y="143.57326"
       width="271.60034"
       height="239.59357"
       id="rect4" />
  </defs>
  <g
     inkscape:label="Logo 1"
     inkscape:groupmode="layer"
     id="layer1"
     transform="translate(-338.82016,-240.06378)">
    <path
       d="m 378.64255,251.09962 q 0.49009,-0.0121 0.95133,0.0922 0.45656,0.0933 0.8558,0.32817 0.40562,0.21915 0.72713,0.57817 0.33256,0.35435 0.5432,0.85157 0.26681,0.62982 0.26751,1.21598 0.0164,0.59253 -0.2031,1.08953 -0.20847,0.49232 -0.61975,0.87507 -0.4066,0.39379 -0.98117,0.6372 -0.47513,0.20127 -0.93544,0.25292 -0.45564,0.0627 -0.91427,0.0876 -0.45395,0.0359 -0.92532,0.0922 -0.46668,0.0674 -0.97028,0.29375 -0.0256,-0.27585 0.0227,-0.53091 0.0513,-0.21724 0.16727,-0.43577 0.13167,-0.21217 0.39685,-0.32451 0.20994,-0.0889 0.4195,-0.0865 0.22061,-0.002 0.44889,0.0444 l -1.53532,-3.62421 q -0.0515,-0.12154 -0.10167,-0.17848 -0.0502,-0.0569 -0.0957,-0.10282 -0.0519,-0.0301 -0.0991,-0.0493 0.0191,-0.0472 0.0289,-0.11648 0.003,-0.0536 -0.003,-0.12922 -0.0107,-0.0867 -0.0622,-0.20825 l -1.42766,-3.37007 q -0.53206,0.25146 -0.81075,0.57804 -0.26764,0.32189 -0.3525,0.64455 -0.0738,0.31799 0.0147,0.61931 0.0839,0.29028 0.2863,0.49124 0.19774,0.18991 0.47321,0.25567 0.27548,0.0658 0.58486,-0.0653 0.0163,0.25375 -0.0525,0.49139 -0.056,0.20619 -0.22083,0.4324 -0.1695,0.21516 -0.52308,0.36494 -0.45303,0.19192 -0.92831,0.0544 -0.46423,-0.14218 -0.79043,-0.51226 -0.32619,-0.37007 -0.43739,-0.90942 -0.11587,-0.5504 0.14355,-1.16857 0.27048,-0.62284 0.97748,-1.26119 0.71805,-0.64302 2.04398,-1.20473 0.67402,-0.28553 1.33791,-0.41038 0.6592,-0.1359 1.22925,-0.0516 0.5811,0.0796 1.03352,0.40927 0.45879,0.31391 0.72091,0.93268 0.33234,0.78451 0.13845,1.55736 -0.18284,0.76817 -0.82393,1.46982 z m -0.54683,-2.24449 q -0.18723,-0.44198 -0.42879,-0.70456 -0.24156,-0.26257 -0.53575,-0.37252 -0.28315,-0.11464 -0.61256,-0.0924 -0.33409,0.0112 -0.69067,0.12316 l 1.44638,3.41428 0.0421,0.0994 q 0.21968,-0.15823 0.43806,-0.38106 0.22475,-0.23857 0.36785,-0.5468 0.1431,-0.30824 0.151,-0.68952 0.019,-0.38597 -0.17765,-0.85004 z m 1.52601,7.3554 q 0.28729,-0.1217 0.53244,-0.34285 0.24984,-0.21009 0.37253,-0.53575 0.13842,-0.31928 0.11187,-0.75113 -0.0155,-0.43654 -0.24955,-0.98901 -0.23404,-0.55247 -0.56193,-0.89576 -0.32151,-0.35903 -0.69735,-0.53866 -0.36479,-0.1843 -0.7618,-0.19857 -0.39065,-0.03 -0.74722,0.082 l 1.79744,4.24298 q 0.0553,-0.0234 0.0994,-0.0421 0.0489,-0.008 0.10412,-0.0311 z m 8.61601,-13.56069 q 0.0804,-0.0244 0.14374,0.019 0.0749,0.04 0.0993,0.12033 0.0454,0.14926 -0.0854,0.2141 -0.12731,0.0763 -0.24517,0.225 -0.12134,0.13722 -0.0481,0.37833 l 1.08165,3.55927 q 0.0384,0.1263 0.0858,0.19969 0.0439,0.0619 0.0808,0.10086 0.0519,0.0469 0.0968,0.0709 -0.024,0.0449 -0.0445,0.1013 -0.006,0.0644 -0.008,0.14026 -0.002,0.0759 0.0364,0.20216 l 0.54082,1.77964 q 0.1218,-0.0119 0.26104,0.0335 0.1093,0.0295 0.24302,0.13935 0.13023,0.0984 0.25742,0.31057 -0.21815,0.0663 -0.32306,0.29885 -0.1084,0.22107 -0.14195,0.48211 -0.037,0.24955 -0.0396,0.48863 0.009,0.2356 -0.001,0.32644 -0.0196,0.30695 -0.10357,0.6084 -0.084,0.30144 -0.28874,0.57688 -0.19328,0.27195 -0.52579,0.49842 -0.31755,0.23446 -0.82274,0.38798 -0.65444,0.19889 -1.14207,0.12132 -0.47265,-0.0696 -0.84241,-0.29584 -0.3548,-0.21826 -0.61222,-0.52883 -0.25743,-0.31057 -0.48592,-0.56722 -0.22051,-0.27162 -0.44057,-0.41796 -0.21206,-0.1613 -0.46466,-0.0845 -0.0159,-0.25856 0.0606,-0.41975 0.0729,-0.17267 0.16683,-0.27645 0.11684,-0.11076 0.26261,-0.1676 l -0.54083,-1.77964 q -0.0384,-0.12629 -0.0823,-0.1882 -0.0439,-0.0619 -0.0843,-0.11234 -0.0484,-0.0355 -0.1048,-0.0559 0.0355,-0.0484 0.0525,-0.11628 0.009,-0.0529 0.011,-0.12877 -0.001,-0.0873 -0.0398,-0.21365 l -1.06072,-3.49038 q -0.52916,0.19844 -0.81778,0.48682 -0.28862,0.28838 -0.39556,0.5968 -0.0955,0.30493 -0.0427,0.60244 0.0643,0.29401 0.24087,0.50372 0.17661,0.20971 0.4436,0.30416 0.27848,0.091 0.58848,-0.003 -0.0106,0.25405 -0.10401,0.48312 -0.0774,0.19912 -0.26521,0.40668 -0.19125,0.19608 -0.55866,0.30774 -0.47074,0.14305 -0.89443,-0.0543 -0.4122,-0.20082 -0.67457,-0.61022 -0.26238,-0.4094 -0.32754,-0.95398 -0.0687,-0.55606 0.1512,-1.11201 0.23133,-0.55943 0.79505,-1.05684 0.56373,-0.4974 1.56262,-0.80096 l 1.42371,-0.43266 q 0.0804,-0.0244 0.14375,0.019 0.0748,0.04 0.0993,0.12034 0.0454,0.14926 -0.0854,0.21409 -0.11583,0.0728 -0.24516,0.22501 -0.12135,0.13721 -0.0481,0.37832 l 1.08166,3.55928 q 0.0663,0.21814 0.17806,0.29705 0.0404,0.0504 0.0968,0.0709 -0.0355,0.0484 -0.0445,0.10131 -0.017,0.0679 -0.019,0.14374 -0.002,0.0759 0.0364,0.20216 l 0.87928,2.89335 q 0.0768,0.25259 0.23738,0.49224 0.15714,0.22817 0.38068,0.38599 0.23503,0.15433 0.51452,0.20735 0.29098,0.0495 0.63542,-0.0551 0.41334,-0.12561 0.62508,-0.37808 0.21173,-0.25248 0.28423,-0.55043 0.0725,-0.29795 0.0347,-0.58747 -0.0263,-0.293 -0.0891,-0.49967 l -0.82695,-2.72112 q -0.0384,-0.1263 -0.0823,-0.18821 -0.0439,-0.0619 -0.0843,-0.11234 -0.0484,-0.0355 -0.0933,-0.0594 0.024,-0.0449 0.041,-0.11279 0.009,-0.0529 0.011,-0.12877 -0.001,-0.0874 -0.0398,-0.21365 l -1.08165,-3.55927 q -0.0733,-0.24111 -0.26193,-0.28412 -0.18066,-0.058 -0.31743,-0.054 -0.14475,0.0189 -0.19011,-0.13035 -0.0244,-0.0804 0.004,-0.15173 0.04,-0.0749 0.12034,-0.0993 z m 7.74266,-1.52382 q -0.16727,1.02294 -0.0651,1.7977 0.1022,0.77477 0.30209,1.29818 0.22775,0.60357 0.56928,1.03823 -0.4269,0.19329 -0.71617,0.1519 -0.28927,-0.0414 -0.48374,-0.22353 -0.18498,-0.19622 -0.31537,-0.48867 -0.12092,-0.30652 -0.22287,-0.64119 -0.10195,-0.33468 -0.2016,-0.65757 -0.0902,-0.33697 -0.23723,-0.58949 -0.13528,-0.25482 -0.34411,-0.38525 -0.20883,-0.13044 -0.52684,-0.0684 l -0.18845,0.0368 0.73048,3.74543 q 0.0437,0.22378 0.14677,0.3137 0.035,0.0543 0.089,0.0804 -0.0402,0.0445 -0.0546,0.0962 -0.0239,0.0658 -0.0336,0.14104 -0.01,0.0753 0.0155,0.20482 l 0.77643,3.98099 q 0.10107,0.51824 0.20043,0.90232 0.11344,0.39356 0.26998,0.63201 0.15884,0.25022 0.41019,0.34791 0.25134,0.0977 0.64002,0.0219 -0.008,0.20941 -0.0937,0.39728 -0.0784,0.16201 -0.24621,0.30477 -0.16548,0.15453 -0.49527,0.21885 -0.30623,0.0597 -0.53891,-0.005 -0.23268,-0.0647 -0.42973,-0.19739 -0.18527,-0.13503 -0.34211,-0.31228 -0.15683,-0.17726 -0.32084,-0.32866 -0.16402,-0.15141 -0.35648,-0.26058 -0.17838,-0.0997 -0.41135,-0.10317 -0.18816,-0.0244 -0.22032,-0.18932 v 0 q -0.0322,-0.1649 0.12584,-0.23239 0.0991,-0.056 0.19133,-0.14735 0.104,-0.0936 0.17296,-0.24158 0.0712,-0.13615 0.0934,-0.33609 0.0339,-0.20223 -0.0189,-0.47313 l -0.72589,-3.72187 q -0.0253,-0.12956 -0.0626,-0.19563 -0.0373,-0.0661 -0.0724,-0.12037 -0.0445,-0.0402 -0.0985,-0.0664 0.0402,-0.0445 0.0641,-0.11031 0.0144,-0.0517 0.0241,-0.12696 0.007,-0.0871 -0.0178,-0.2166 l -0.73049,-3.74543 -0.17667,0.0344 q -0.31801,0.062 -0.46252,0.26138 -0.14451,0.19935 -0.1859,0.48862 -0.0414,0.28927 -0.0101,0.63773 0.0408,0.33438 0.0721,0.68283 0.0313,0.34846 0.0226,0.68025 8.4e-4,0.31772 -0.10863,0.57136 -0.1,0.23957 -0.35251,0.38663 -0.25252,0.14706 -0.72076,0.12835 0.15316,-0.53114 0.13741,-1.17606 -0.0114,-0.56016 -0.20787,-1.31655 -0.19642,-0.75639 -0.73583,-1.6415 z m 7.63357,-0.8445 q -0.25599,1.00441 -0.22186,1.78514 0.0341,0.78073 0.18754,1.31961 0.17416,0.62115 0.47641,1.08398 -0.44215,0.15527 -0.7267,0.0888 -0.28455,-0.0665 -0.46236,-0.26494 -0.16714,-0.21162 -0.27148,-0.51434 -0.0937,-0.31592 -0.16601,-0.65822 -0.0723,-0.3423 -0.14339,-0.67266 -0.0604,-0.34356 -0.18483,-0.60796 -0.11251,-0.26566 -0.30915,-0.41384 -0.19663,-0.14818 -0.51884,-0.11417 l -0.19094,0.0202 0.40052,3.79492 q 0.0239,0.22674 0.1188,0.32533 0.0302,0.0571 0.0817,0.0879 -0.044,0.0408 -0.0628,0.0911 -0.0295,0.0634 -0.0458,0.13757 -0.0163,0.0741 -0.002,0.20539 l 0.42572,4.03359 q 0.0554,0.52509 0.12085,0.91638 0.0786,0.40197 0.21373,0.65318 0.13637,0.26314 0.37823,0.38241 0.24185,0.11927 0.63567,0.0777 -0.0263,0.20791 -0.12803,0.38758 -0.0923,0.15454 -0.27189,0.28209 -0.17835,0.13949 -0.51249,0.17476 -0.31028,0.0327 -0.53642,-0.052 -0.22614,-0.0847 -0.41085,-0.23417 -0.17277,-0.15069 -0.31352,-0.34097 -0.14075,-0.19028 -0.29091,-0.35543 -0.15017,-0.16515 -0.33235,-0.29073 -0.16899,-0.11489 -0.40077,-0.1387 -0.18531,-0.0408 -0.20294,-0.20785 v 0 q -0.0176,-0.16707 0.14566,-0.2205 0.10363,-0.0471 0.20347,-0.13008 0.11178,-0.0842 0.1934,-0.22554 0.0829,-0.12941 0.12239,-0.32665 0.0514,-0.1985 0.0225,-0.47297 l -0.398,-3.77106 q -0.0139,-0.13127 -0.0453,-0.20035 -0.0314,-0.0691 -0.0616,-0.12623 -0.0408,-0.044 -0.0923,-0.0747 0.0439,-0.0408 0.0735,-0.10429 0.0188,-0.0502 0.0351,-0.12438 0.0151,-0.0861 0.001,-0.21732 l -0.40052,-3.79492 -0.17901,0.0189 q -0.32221,0.034 -0.48358,0.21997 -0.16137,0.18596 -0.22787,0.47052 -0.0665,0.28455 -0.0658,0.6344 0.0114,0.33667 0.0121,0.68652 7.3e-4,0.34986 -0.0369,0.67963 -0.0269,0.31657 -0.15813,0.55969 -0.12053,0.22992 -0.38493,0.35435 -0.2644,0.12444 -0.72922,0.0649 0.19897,-0.51573 0.23962,-1.15955 0.0375,-0.55903 -0.0921,-1.32968 -0.1296,-0.77066 -0.58963,-1.6995 z m 3.32953,0.61515 q -0.41989,0.01 -0.66496,0.3153 -0.23307,0.30541 -0.22264,0.7613 0.0107,0.46787 0.29681,0.90544 0.28581,0.42557 0.71586,0.85984 0.42978,0.42227 0.92064,0.89116 0.50286,0.46862 0.93538,1.01086 0.43225,0.53024 0.72329,1.18375 0.29075,0.64152 0.30888,1.43331 0.0151,0.65983 -0.21302,1.18118 -0.21613,0.52109 -0.60379,0.89006 -0.38765,0.36897 -0.92339,0.56128 -0.53547,0.20431 -1.14731,0.21831 -0.82778,0.019 -1.39905,-0.29205 -0.55899,-0.29928 -0.88217,-0.78402 -0.31091,-0.473 -0.3958,-1.03521 -0.0849,-0.5622 0.0358,-1.05709 0.12043,-0.50689 0.43666,-0.85022 0.31595,-0.35533 0.807,-0.40258 0.26338,-0.03 0.46897,0.0373 0.20532,0.0553 0.35121,0.136 0.17043,0.10412 0.29342,0.23334 -0.34627,0.0799 -0.56789,0.36109 -0.20963,0.28088 -0.29709,0.65498 -0.0757,0.36182 -0.0424,0.76917 0.0451,0.39507 0.2087,0.72741 0.17565,0.33207 0.45652,0.54169 0.28114,0.22163 0.66504,0.21284 0.64783,-0.0148 1.00875,-0.50322 0.36092,-0.48839 0.33949,-1.42414 -0.0187,-0.81579 -0.34405,-1.39649 -0.32565,-0.59271 -0.79279,-1.07414 -0.19607,-0.17556 -0.42593,-0.25432 -0.21787,-0.079 -0.42209,-0.0864 -0.2045,-0.0193 -0.35963,0.0202 -0.15514,0.0396 -0.2143,0.0769 -0.0281,-0.1794 -0.0197,-0.33564 0.009,-0.13224 0.0417,-0.27702 0.0447,-0.14506 0.17501,-0.22007 -0.29425,-0.26933 -0.57622,-0.52695 -0.27024,-0.26988 -0.48106,-0.56513 -0.19909,-0.30753 -0.32675,-0.64069 -0.12793,-0.34517 -0.13727,-0.75306 -0.0242,-1.05572 0.62248,-1.64668 0.64637,-0.60295 1.73808,-0.62794 0.51587,-0.0118 0.95077,0.11027 0.43464,0.11008 0.76212,0.25862 0.37602,0.17144 0.69316,0.39224 -0.26769,0.36622 -0.40149,0.8134 -0.12345,0.37492 -0.1479,0.87962 -0.0247,0.49269 0.20467,1.07559 -0.46788,0.0107 -0.71249,-0.18774 -0.24488,-0.21045 -0.37199,-0.51962 -0.11511,-0.30945 -0.17134,-0.66825 -0.0442,-0.35909 -0.12335,-0.66936 -0.0791,-0.31027 -0.25174,-0.51037 -0.16091,-0.21237 -0.52081,-0.20413 z m 5.38387,-0.18047 -0.34754,3.08577 -0.6596,-0.023 -0.13217,-3.10247 z m 10.48573,5.70557 q 0.4238,0.24644 0.76199,0.57697 0.34,0.31868 0.557,0.72791 0.23067,0.39917 0.31642,0.87342 0.0976,0.47606 0.0165,1.00994 -0.10272,0.67624 -0.40923,1.17587 -0.29645,0.51331 -0.74382,0.82162 -0.43551,0.31011 -0.98636,0.42064 -0.55265,0.12239 -1.16957,0.0287 -0.51015,-0.0775 -0.92929,-0.27467 -0.42094,-0.18532 -0.82462,-0.40443 -0.40547,-0.20724 -0.83648,-0.40623 -0.4328,-0.18712 -0.98035,-0.25815 0.1227,-0.24839 0.2975,-0.44032 0.15754,-0.15813 0.37079,-0.28353 0.22331,-0.11173 0.50804,-0.0685 0.22542,0.0342 0.40263,0.14613 0.18907,0.11368 0.35907,0.27302 l 0.5911,-3.89137 q 0.0198,-0.1305 0.007,-0.20529 -0.0129,-0.0748 -0.0276,-0.13771 -0.0284,-0.0529 -0.0586,-0.0939 0.041,-0.0302 0.0856,-0.0841 0.0309,-0.0438 0.0655,-0.11143 0.0363,-0.0794 0.0562,-0.20994 l 0.54965,-3.6185 q -0.58494,-0.0646 -0.99342,0.0676 -0.39661,0.13396 -0.63795,0.36433 -0.22947,0.23217 -0.31191,0.53523 -0.0807,0.29119 -0.0135,0.56841 0.0689,0.26536 0.26911,0.4657 0.20019,0.20033 0.53238,0.25079 -0.11909,0.22467 -0.30216,0.39106 -0.15573,0.14627 -0.41463,0.2526 -0.2571,0.0945 -0.63675,0.0368 -0.48642,-0.0739 -0.81921,-0.44002 -0.32093,-0.36433 -0.40487,-0.85045 -0.0839,-0.48612 0.10392,-1.00377 0.18967,-0.52952 0.73451,-0.92013 0.55671,-0.38881 1.49335,-0.56211 0.94852,-0.1715 2.37219,0.0448 0.72369,0.10993 1.35458,0.35141 0.6327,0.22962 1.07406,0.60011 0.45323,0.37228 0.66588,0.89009 0.22632,0.50775 0.1254,1.17213 -0.12795,0.84233 -0.69802,1.39904 -0.55821,0.5585 -1.47188,0.82026 z m 0.71019,-2.19828 q 0.0721,-0.47456 0.004,-0.82477 -0.0682,-0.35021 -0.26115,-0.598 -0.18112,-0.24599 -0.47336,-0.39962 -0.29044,-0.16549 -0.65281,-0.25695 l -0.55686,3.66595 -0.0162,0.10677 q 0.27002,-0.0197 0.57277,-0.0951 0.31642,-0.0855 0.5998,-0.27302 0.28339,-0.18757 0.48988,-0.50819 0.21836,-0.31883 0.29405,-0.81711 z m -2.55391,7.06458 q 0.30846,0.0469 0.63314,-0.0131 0.32288,-0.0481 0.598,-0.26115 0.28519,-0.19943 0.48883,-0.58118 0.2155,-0.37995 0.30561,-0.97314 0.0901,-0.5932 -0.009,-1.05739 -0.0858,-0.47426 -0.31177,-0.82417 -0.21415,-0.34811 -0.54483,-0.56827 -0.31702,-0.23022 -0.6794,-0.32167 l -0.69202,4.55574 q 0.0593,0.009 0.10678,0.0162 0.0456,0.0191 0.10497,0.0281 z m 11.67585,-0.80029 q -0.28231,0.40933 -0.52646,1.00258 -0.22949,0.58472 -0.387,1.22576 -0.14591,0.64412 -0.2014,1.27496 -0.0439,0.63391 0.0511,1.11844 -0.45615,-0.0588 -0.73244,-0.28105 -0.27629,-0.22221 -0.38291,-0.70981 l -3.52622,-0.93471 q -0.18559,-0.0492 -0.1364,-0.23479 0.04,-0.15079 0.18532,-0.13709 0.13682,-9.8e-4 0.31528,-0.0654 0.18699,-0.0497 0.25156,-0.29334 l 1.13457,-4.28018 q 0.0338,-0.12759 0.0291,-0.20334 -0.005,-0.0757 -0.0126,-0.13989 -0.0225,-0.0556 -0.0481,-0.0996 0.044,-0.0256 0.0942,-0.0743 0.0355,-0.0403 0.0772,-0.1037 0.0447,-0.075 0.0785,-0.20264 l 0.93779,-3.53782 q -0.57452,-0.12746 -0.9949,-0.0403 -0.40878,0.0903 -0.67361,0.29319 -0.25323,0.20599 -0.36798,0.49835 -0.11166,0.28077 -0.0749,0.56363 0.0398,0.27125 0.21717,0.49207 0.18894,0.22388 0.50212,0.3069 -0.14269,0.21046 -0.34267,0.35608 -0.17064,0.12857 -0.43953,0.20627 -0.26581,0.0661 -0.63699,-0.0323 -0.46397,-0.12299 -0.71496,-0.48747 -0.23632,-0.373 -0.26175,-0.83907 -0.0254,-0.46608 0.17946,-0.958 0.20488,-0.49193 0.64958,-0.85821 0.44469,-0.36629 1.11928,-0.52266 0.68926,-0.1649 1.62099,0.02 0,0 0.19719,0.0523 0.20026,0.0407 0.51345,0.12368 0.31318,0.083 0.70756,0.18756 0.40598,0.10762 0.82356,0.2183 0.98902,0.24976 2.24176,0.58182 -0.26316,0.29027 -0.4278,0.81769 -0.16156,0.51582 -0.25045,1.0385 -0.11348,0.61546 -0.155,1.28725 -0.36028,-0.0458 -0.5175,-0.2489 -0.14254,-0.21159 -0.17929,-0.49445 -0.0337,-0.29446 -0.0172,-0.63769 0.0165,-0.34323 -0.0141,-0.64929 -0.0159,-0.31458 -0.15232,-0.54937 -0.12173,-0.24331 -0.45811,-0.33247 l -0.74236,-0.19679 -0.97776,3.68861 q -0.0369,0.1392 -0.0267,0.24122 0.16141,-0.0938 0.34603,-0.1814 0.19621,-0.0845 0.40947,-0.13974 0.22794,-0.0637 0.45518,-0.078 0.23883,-0.0112 0.47082,0.0503 0.24359,0.0646 0.37523,0.22361 0.14632,0.15051 0.1698,0.34295 0.0351,0.19551 -0.0465,0.40975 -0.07,0.21732 -0.27071,0.41241 -0.028,-0.0819 -0.0822,-0.15834 -0.0426,-0.0734 -0.1378,-0.13584 -0.0836,-0.0594 -0.24596,-0.10244 -0.25519,-0.0676 -0.5203,-0.051 -0.25351,0.0197 -0.48997,0.0687 -0.22486,0.0521 -0.418,0.12507 -0.18154,0.076 -0.29278,0.12102 l -1.07308,4.0482 0.57997,0.15373 q 0.40598,0.10762 0.69401,-0.0892 0.29656,-0.18209 0.52562,-0.53105 0.23758,-0.33429 0.43254,-0.74194 0.19496,-0.40766 0.4148,-0.72182 0.22291,-0.32576 0.49864,-0.47613 0.27881,-0.16197 0.65782,5.7e-4 z m 5.20935,-4.46076 q -0.39535,-0.14177 -0.73382,0.0556 -0.32718,0.20138 -0.4811,0.63062 -0.15797,0.44053 -0.048,0.95163 0.11398,0.49981 0.35946,1.05952 0.24952,0.54842 0.53933,1.16227 0.3011,0.6179 0.51013,1.27927 0.21307,0.65008 0.25009,1.3645 0.0411,0.70313 -0.22627,1.44865 -0.22278,0.62126 -0.62287,1.02597 -0.38879,0.40875 -0.88306,0.61396 -0.49428,0.2052 -1.06335,0.19236 -0.57311,-0.002 -1.14919,-0.20813 -0.77941,-0.27948 -1.20094,-0.77484 -0.41429,-0.48002 -0.5419,-1.04846 -0.12037,-0.55309 0.002,-1.10829 0.1226,-0.5552 0.41293,-0.97377 0.29438,-0.42986 0.71278,-0.63678 0.42245,-0.21821 0.89772,-0.086 0.25661,0.0665 0.42433,0.20315 0.17178,0.12534 0.27897,0.25302 0.12169,0.15837 0.19009,0.32313 -0.35188,-0.0497 -0.65966,0.13314 -0.29649,0.18689 -0.51242,0.50466 -0.20059,0.31051 -0.31572,0.70267 -0.0998,0.38491 -0.0663,0.75385 0.0447,0.37298 0.23161,0.66947 0.18284,0.30778 0.54431,0.4374 0.60997,0.21873 1.12215,-0.10753 0.51219,-0.32626 0.82814,-1.20733 0.27544,-0.7681 0.18023,-1.42691 -0.0912,-0.6701 -0.35433,-1.28714 -0.11997,-0.23425 -0.30623,-0.39028 -0.17497,-0.15198 -0.36295,-0.23213 -0.18393,-0.0915 -0.34292,-0.11023 -0.159,-0.0188 -0.22763,-0.005 0.0382,-0.17754 0.10212,-0.32033 0.0559,-0.1202 0.13835,-0.2436 0.0938,-0.11935 0.24234,-0.14257 -0.17793,-0.35701 -0.34862,-0.69868 -0.15534,-0.34891 -0.2461,-0.70016 -0.0754,-0.3585 -0.075,-0.71529 0.005,-0.36808 0.14223,-0.75213 0.35645,-0.99402 1.17214,-1.31344 0.81974,-0.33071 1.84765,0.0379 0.48571,0.17417 0.8478,0.44424 0.36614,0.25878 0.61847,0.51499 0.28941,0.295 0.50614,0.61494 -0.38132,0.2457 -0.66674,0.61504 -0.24982,0.30561 -0.45383,0.76788 -0.19996,0.45097 -0.19512,1.07737 -0.44053,-0.15797 -0.59759,-0.43101 -0.153,-0.28433 -0.16064,-0.61853 0.004,-0.33014 0.08,-0.68522 0.0876,-0.35102 0.12517,-0.66901 0.0375,-0.31799 -0.0517,-0.56673 -0.0739,-0.25598 -0.41281,-0.37749 z m 9.37291,3.16064 q -0.72356,0.74219 -1.08405,1.43555 -0.36048,0.69337 -0.49682,1.23681 -0.15946,0.62509 -0.12887,1.17702 -0.46058,-0.0864 -0.67385,-0.28617 -0.21327,-0.19977 -0.26816,-0.46049 -0.039,-0.26683 0.0218,-0.58119 0.0767,-0.32046 0.18505,-0.65312 0.10836,-0.33265 0.21184,-0.65434 0.11933,-0.32778 0.14363,-0.61899 0.0353,-0.28633 -0.061,-0.51293 -0.0963,-0.22661 -0.39242,-0.35812 l -0.17547,-0.0779 -1.54899,3.48747 q -0.0926,0.20837 -0.0596,0.34117 -0.002,0.0646 0.0268,0.11696 -0.0585,0.0134 -0.0999,0.0476 -0.0573,0.0402 -0.10842,0.0963 -0.0512,0.0561 -0.10474,0.17669 l -1.64641,3.70681 q -0.21433,0.48255 -0.35314,0.8542 -0.13272,0.38748 -0.14118,0.67259 -0.0133,0.29608 0.13659,0.52024 0.14992,0.22415 0.51182,0.38489 -0.12667,0.16696 -0.30454,0.27178 -0.15715,0.0878 -0.37646,0.10853 -0.22418,0.0317 -0.53125,-0.10466 -0.28514,-0.12664 -0.43871,-0.31303 -0.15356,-0.18638 -0.2389,-0.40811 -0.0744,-0.21686 -0.10124,-0.45201 -0.0269,-0.23514 -0.0744,-0.45323 -0.0476,-0.21808 -0.14266,-0.41788 -0.089,-0.18396 -0.27787,-0.32038 -0.14015,-0.1279 -0.072,-0.28144 v 0 q 0.0682,-0.15353 0.23634,-0.11824 0.11332,0.0109 0.24124,-0.011 0.1389,-0.0171 0.28022,-0.0988 0.13644,-0.0707 0.26921,-0.22181 0.14374,-0.14625 0.25578,-0.39849 l 1.53925,-3.46554 q 0.0536,-0.12063 0.0609,-0.19618 0.007,-0.0755 0.01,-0.14012 -0.0134,-0.0585 -0.0427,-0.11086 0.0585,-0.0134 0.11573,-0.0536 0.0414,-0.0341 0.0926,-0.0902 0.056,-0.067 0.10961,-0.18767 l 1.549,-3.48747 -0.1645,-0.0731 q -0.29611,-0.13151 -0.52881,-0.051 -0.2327,0.0805 -0.43247,0.29374 -0.19977,0.21327 -0.37393,0.51669 -0.15832,0.29734 -0.33248,0.60076 -0.17416,0.30343 -0.37148,0.57031 -0.18148,0.26078 -0.4166,0.40583 -0.21929,0.13895 -0.51049,0.11465 -0.29121,-0.0243 -0.66411,-0.3081 0.43002,-0.34735 0.78688,-0.88475 0.31181,-0.46551 0.58456,-1.19785 0.27275,-0.73233 0.3383,-1.76678 z"
       id="text1"
       style="font-size:12px;font-family:'Stanford Breath';-inkscape-font-specification:'Stanford Breath, Normal'"
       transform="translate(-0.26754629)"
       aria-label="BUTTS' BEST" />
    <path
       d="m 348.56797,271.88123 c -0.72279,-0.2602 -1.06973,-0.80953 -1.06973,-1.56123 v -2.22621 c 0,-1.56124 0.20238,-2.31295 1.4745,-2.31295 0.983,0 1.27212,0.49151 1.27212,2.83336 0,1.38777 -0.60715,1.7058 -0.86736,2.37077 1.59015,-0.26021 3.15139,1.04082 5.3776,1.12756 -0.63606,-0.75171 -1.12756,-2.63098 -1.12756,-3.64289 v -3.26703 c 0,-1.01191 0.4915,-1.76362 1.12756,-2.51533 h -5.6378 c -3.32486,0 -5.29086,0.89627 -5.29086,4.77045 v 3.81636 c 0,1.56123 1.24321,2.80444 2.77553,3.38268 l 3.38268,1.30103 c 0.7228,0.28912 1.09865,0.7517 1.09865,1.53232 v 2.89118 c 0,1.56124 -0.75171,1.73471 -1.67688,1.73471 -1.38777,0 -1.61907,-0.46259 -1.61907,-1.90818 0,-2.31294 0.57824,-2.63097 0.83845,-3.29594 -0.983,-0.0578 -2.6888,-1.82145 -4.6548,-1.82145 -0.983,0 -2.05274,0.43368 -3.12248,1.73471 0.54933,-0.20238 1.01192,-0.31803 1.41668,-0.31803 1.87927,0 2.13947,2.11056 2.13947,2.94901 v 3.23812 c 0,1.01191 -0.52041,1.76362 -1.12756,2.54424 h 6.18713 c 3.32486,0 5.29086,-1.87927 5.29086,-4.79936 v -3.81636 c 0,-1.24321 -0.86736,-2.86227 -2.02383,-3.29595 z m 11.91167,8.84702 v -6.3606 c 0.60715,0.46259 1.15647,0.92518 1.79253,0.92518 1.44559,0 2.1973,-2.1973 2.25512,-3.46942 l -0.0578,-0.0289 c -0.31803,0.63606 -0.89626,0.69388 -1.24321,0.69388 -1.2432,0 -1.99491,-0.60715 -2.74662,-1.12756 v -4.1633 h 1.73471 c 0.86735,0 0.80953,0.80953 0.80953,1.30103 0,1.50342 -0.60715,1.82145 -0.83844,2.48642 1.56124,-0.26021 3.12247,1.04082 5.34868,1.12756 -0.63606,-0.75171 -1.12756,-2.63098 -1.12756,-3.64289 v -1.85035 c 0,-1.01192 0.4915,-1.76362 1.12756,-2.54424 H 355.9694 c 0.60715,0.78062 1.12756,1.53232 1.12756,2.54424 v 4.79936 c -0.89626,0.983 -1.12756,2.7177 -1.12756,3.52724 h 0.0578 c 0.14455,-0.63606 0.57823,-0.98301 1.06973,-1.15648 v 7.48816 c 0,1.01191 -0.52041,1.79253 -1.12756,2.54424 h 11.56472 c -0.63606,-0.75171 -1.12756,-1.53233 -1.12756,-2.54424 v -1.82144 c 0,-1.01192 0.4915,-2.9201 1.12756,-3.6718 -2.34185,-0.31803 -3.90309,1.04082 -5.34868,1.12756 0.23129,0.66497 0.83844,0.983 0.83844,2.51532 0,0.46259 0.0578,1.30104 -0.80953,1.30104 z m 13.24161,-4.51025 c 0.52041,0 0.86735,0.2313 1.06973,0.7228 l 1.73471,4.33677 c 0.43368,1.04082 0.34694,1.67688 -0.20238,2.54424 1.59015,0 2.97791,1.61906 5.29086,1.61906 0.43368,0 0.89626,-0.0578 1.41668,-0.20238 -1.24321,-0.31803 -2.51533,-2.97792 -2.89118,-3.96092 l -1.06974,-2.60206 c -0.52041,-1.27212 -0.52041,-2.54424 0.14456,-3.15139 -0.86735,0.43368 -2.02383,0.4915 -2.80445,0.46259 2.22621,-0.54932 3.6718,-2.22621 3.6718,-4.56806 v -2.54424 c 0,-3.1803 -1.85035,-4.79936 -5.57997,-4.79936 h -5.84019 c 0.60715,0.78062 1.12756,1.53232 1.12756,2.54424 v 7.05448 c 0,1.01191 -0.52041,1.76362 -1.12756,2.54423 h 1.12756 v 5.05957 c 0,1.01191 -0.52041,1.79253 -1.12756,2.54424 h 5.6378 c -0.60714,-0.75171 -1.12756,-1.53233 -1.12756,-2.54424 V 276.218 Z m -0.54933,-3.12247 v -5.89801 h 1.2143 c 1.56124,0 2.31294,0.46259 2.31294,2.02383 v 1.56124 c 0,1.56123 -0.7517,2.31294 -2.31294,2.31294 z m 13.7331,7.63272 v -6.3606 c 0.60714,0.46259 1.15647,0.92518 1.79253,0.92518 1.44559,0 2.1973,-2.1973 2.25512,-3.46942 l -0.0578,-0.0289 c -0.31803,0.63606 -0.89627,0.69388 -1.24321,0.69388 -1.24321,0 -1.99492,-0.60715 -2.74662,-1.12756 v -4.1633 h 1.7347 c 0.86736,0 0.80954,0.80953 0.80954,1.30103 0,1.50342 -0.60715,1.82145 -0.83845,2.48642 1.56124,-0.26021 3.12248,1.04082 5.34869,1.12756 -0.63606,-0.75171 -1.12756,-2.63098 -1.12756,-3.64289 v -1.85035 c 0,-1.01192 0.4915,-1.76362 1.12756,-2.54424 h -11.56472 c 0.60714,0.78062 1.12756,1.53232 1.12756,2.54424 v 4.79936 c -0.89627,0.983 -1.12756,2.7177 -1.12756,3.52724 h 0.0578 c 0.14456,-0.63606 0.57824,-0.98301 1.06974,-1.15648 v 7.48816 c 0,1.01191 -0.52042,1.79253 -1.12756,2.54424 h 11.56472 c -0.63606,-0.75171 -1.12756,-1.53233 -1.12756,-2.54424 v -1.82144 c 0,-1.01192 0.4915,-2.9201 1.12756,-3.6718 -2.34186,-0.31803 -3.9031,1.04082 -5.34869,1.12756 0.2313,0.66497 0.83845,0.983 0.83845,2.51532 0,0.46259 0.0578,1.30104 -0.80954,1.30104 z m 16.30625,-14.10896 v 8.35551 l -2.89118,-10.89975 h -5.31977 c 0.60715,0.78062 1.12756,1.53232 1.12756,2.54424 v 14.65828 c 0,1.01191 -0.52041,1.79253 -1.12756,2.54424 h 5.6378 c -0.60715,-0.75171 -1.12756,-1.53233 -1.12756,-2.54424 v -8.55789 l 2.92009,11.10213 h 5.29086 c -0.63606,-0.75171 -1.12756,-1.53233 -1.12756,-2.54424 v -14.65828 c 0,-1.01192 0.4915,-1.76362 1.12756,-2.54424 h -5.6378 c 0.60715,0.78062 1.12756,1.53232 1.12756,2.54424 z m 5.43542,-2.54424 c 0.60715,0.78062 1.12756,1.53232 1.12756,2.54424 v 14.65828 c 0,1.01191 -0.52041,1.79253 -1.12756,2.54424 h 5.84019 c 3.72962,0 5.57997,-1.7058 5.57997,-4.79936 v -10.14804 c 0,-4.10548 -1.85035,-4.79936 -5.57997,-4.79936 z m 4.51024,16.6532 v -13.53073 h 1.2143 c 1.56124,0 2.31294,0.75171 2.31294,2.31295 v 8.90483 c 0,1.53233 -0.7517,2.31295 -2.31294,2.31295 z m 12.51883,0.54932 v -14.65828 c 0,-1.01192 0.52041,-1.76362 1.12756,-2.54424 h -5.6378 c 0.60714,0.78062 1.12756,1.53232 1.12756,2.54424 v 14.65828 c 0,1.01191 -0.52042,1.79253 -1.12756,2.54424 h 5.6378 c -0.60715,-0.75171 -1.12756,-1.53233 -1.12756,-2.54424 z m 2.13949,-17.20252 c 0.60715,0.78062 1.12756,1.53232 1.12756,2.54424 v 7.89292 c 0,1.01191 -0.52041,1.79253 -1.12756,2.54424 h 1.12756 v 4.22112 c 0,1.01191 -0.52041,1.79253 -1.12756,2.54424 h 5.6378 c -0.60715,-0.75171 -1.12756,-1.53233 -1.12756,-2.54424 v -4.22112 h 1.32994 c 3.72963,0 5.57998,-1.7058 5.57998,-4.79936 v -3.38268 c 0,-4.10548 -1.85035,-4.79936 -5.57998,-4.79936 z m 4.51024,9.88783 v -6.76536 h 1.2143 c 1.56123,0 2.31294,0.75171 2.31294,2.31295 v 2.13947 c 0,1.53233 -0.75171,2.31294 -2.31294,2.31294 z m 12.20078,7.31469 v -14.65828 c 0,-1.01192 0.52041,-1.76362 1.12756,-2.54424 h -5.6378 c 0.60714,0.78062 1.12756,1.53232 1.12756,2.54424 v 14.65828 c 0,1.01191 -0.52042,1.79253 -1.12756,2.54424 h 5.6378 c -0.60715,-0.75171 -1.12756,-1.53233 -1.12756,-2.54424 z m 10.75521,0 v -14.08005 h 0.28911 c 0.83845,0 0.78062,0.80953 0.78062,1.30103 0,1.50342 -0.31803,1.82145 -0.54932,2.48642 1.56124,-0.26021 2.54424,1.04082 4.77045,1.12756 -0.60715,-0.75171 -1.12756,-2.63098 -1.12756,-3.64289 v -1.85035 c 0,-1.01192 0.52041,-1.76362 1.12756,-2.54424 h -14.25352 c 0.60715,0.78062 1.12756,1.53232 1.12756,2.54424 v 1.85035 c 0,1.01191 -0.52041,2.89118 -1.12756,3.64289 2.22621,-0.0867 3.20921,-1.38777 4.79936,-1.12756 -0.26021,-0.66497 -0.57824,-0.983 -0.57824,-2.48642 0,-0.4915 -0.0578,-1.30103 0.80953,-1.30103 h 0.54933 v 14.08005 c 0,1.01191 -0.4915,1.79253 -1.12756,2.54424 h 5.6378 c -0.60715,-0.75171 -1.12756,-1.53233 -1.12756,-2.54424 z m 11.82493,-4.71262 v 4.71262 c 0,1.01191 -0.4915,1.79253 -1.12756,2.54424 h 5.6378 c -0.60714,-0.75171 -1.12756,-1.53233 -1.12756,-2.54424 v -4.71262 l 4.04766,-9.94566 c 0.40476,-1.01192 1.32994,-1.76362 2.28403,-2.54424 h -5.89801 c 0.28912,0.78062 0.37585,1.56124 -0.0289,2.54424 l -2.08165,5.17521 -2.08165,-5.17521 c -0.40477,-0.95409 -0.31803,-1.76362 -0.0289,-2.54424 h -5.89801 c 0.95409,0.78062 1.85036,1.53232 2.28403,2.54424 z"
       id="text2"
       style="font-size:28.9118px;font-family:Firlest;-inkscape-font-specification:'Firlest, Normal';stroke-width:2.40931"
       aria-label="Serendipity" />
    <path
       d="m 373.37155,327.73478 q 0,0.54875 0.096,0.74081 0,0.0137 0.0137,0.0412 0.0137,0.0274 -0.0137,0.0274 -0.0137,0 -0.0412,0 h -0.6585 q -0.0412,0 -0.0549,0 -0.0137,-0.0137 0,-0.0274 0.0137,-0.0274 0.0137,-0.0412 0.096,-0.19206 0.096,-0.74081 v -0.6585 q 0,-0.54876 -0.096,-0.74082 0,-0.0137 -0.0137,-0.0412 -0.0137,-0.0274 0,-0.0274 0.0274,0 0.0549,0 h 0.6585 q 0.0412,0 0.0549,0.0137 0.0137,0 0,0.0274 -0.0137,0.0137 -0.0137,0.0274 -0.096,0.19206 -0.096,0.74082 z m 0.93288,0 q 0,0.54875 0.096,0.74081 0,0.0137 0.0137,0.0412 0.0137,0.0274 -0.0137,0.0274 -0.0137,0 -0.0412,0 h -0.6585 q -0.0412,0 -0.0549,0 -0.0137,-0.0137 0,-0.0274 0.0137,-0.0274 0.0137,-0.0412 0.096,-0.19206 0.096,-0.74081 v -0.6585 q 0,-0.54876 -0.096,-0.74082 0,-0.0137 -0.0137,-0.0412 -0.0137,-0.0274 0,-0.0274 0.0274,0 0.0549,0 h 0.6585 q 0.0412,0 0.0549,0.0137 0.0137,0 0,0.0274 -0.0137,0.0137 -0.0137,0.0274 -0.096,0.19206 -0.096,0.74082 z m 4.2254,7.35327 q 0.0274,0.38413 0.0686,0.5076 0.0412,0.12347 0.2195,0.13719 0.0686,0 0.0686,0.0686 0,0.0686 -0.0686,0.0686 -0.10975,0 -0.20578,0.1509 -0.0823,0.16463 -0.0823,0.35669 v 0.0412 q 0.0137,0.23322 0.15091,0.38412 0.13718,0.16463 0.42528,0.16463 0.0549,0 0.0549,0.0686 0,0.0686 -0.0549,0.0686 h -2.52426 q -0.0549,0 -0.0549,-0.0686 0,-0.0686 0.0549,-0.0686 0.30181,0 0.439,-0.16463 0.13719,-0.1509 0.13719,-0.38412 v -0.0412 q 0,-0.19206 -0.096,-0.35669 -0.0823,-0.1509 -0.19207,-0.1509 -0.0549,0 -0.0549,-0.0686 0,-0.0686 0.0549,-0.0686 0.17835,-0.0137 0.2195,-0.13719 0.0412,-0.12347 0.0686,-0.5076 v -7.84715 q 0.35669,-0.0686 0.58991,-0.24694 0.24694,-0.17834 0.48015,-0.45272 0.0412,-0.0412 0.15091,-0.1509 0.10975,-0.12347 0.20578,-0.15091 0.10975,-0.0274 0.13719,-0.0274 0.096,0 0.15091,0.0686 0.0686,0.0549 0.0686,0.13719 0,0.096 -0.0549,0.15091 -0.0549,0.0549 -0.12347,0.0549 -0.12347,0 -0.10975,-0.12346 -0.12347,-0.0137 -0.12347,1.00147 v 3.63548 q 0.74081,-0.0274 1.1661,-0.75453 0.42528,-0.7271 0.42528,-1.71485 0,-0.71338 -0.23322,-1.35817 -0.23322,-0.64478 -0.71338,-1.04262 -0.46644,-0.39785 -1.15238,-0.39785 -0.80941,0 -1.3856,0.35669 -0.57619,0.34297 -0.86428,0.86428 -0.2881,0.52132 -0.2881,1.0152 0,0.35668 0.16463,0.60362 0.16463,0.23322 0.45272,0.23322 0.20578,0 0.32925,-0.12347 0.13719,-0.13719 0.13719,-0.28809 0,-0.16463 -0.13719,-0.26066 h -0.0274 q -0.13718,0 -0.13718,-0.15091 0,-0.096 0.0686,-0.1509 0.0549,-0.0412 0.12347,-0.0412 0.16463,0 0.30181,0.17835 0.15091,0.17834 0.15091,0.41156 0,0.17834 -0.096,0.35669 0.0549,0.0686 0.0549,0.20578 0,0.23322 -0.2195,0.42528 -0.20578,0.17835 -0.56247,0.17835 -0.52131,0 -0.80941,-0.39785 -0.28809,-0.39784 -0.28809,-0.98775 0,-0.61735 0.32925,-1.22097 0.32925,-0.60363 1.01519,-0.98776 0.68594,-0.39784 1.67369,-0.39784 1.11123,0 1.8932,0.439 0.79569,0.42528 1.19353,1.12494 0.39785,0.68594 0.39785,1.45419 0,0.71338 -0.34297,1.34444 -0.34297,0.61735 -1.01519,1.00148 -0.6585,0.3704 -1.6051,0.3704 z m 8.99952,0.64479 q 0.0549,0 0.0549,0.0686 0.0137,0.0686 -0.0412,0.0686 h -2.52426 q -0.0549,0 -0.0686,-0.0686 0,-0.0686 0.0549,-0.0686 0.24694,0 0.35669,-0.12347 0.12347,-0.13719 0.10975,-0.32925 l -0.0549,-0.24694 q -0.0686,-0.16463 -0.16462,-0.27438 -0.096,-0.12347 -0.19206,-0.12347 -0.0549,0 -0.0823,-0.0686 -0.0137,-0.0686 0.0412,-0.0686 0.12347,-0.0137 0.16462,-0.0549 0.0412,-0.0549 0.0412,-0.17834 0,-0.13719 -0.0137,-0.2195 l -0.60363,-2.86723 q -0.30181,0.10975 -0.69965,0.17834 v 2.49682 q 0.0274,0.38413 0.0686,0.5076 0.0412,0.12347 0.2195,0.13719 0.0686,0 0.0686,0.0686 0,0.0686 -0.0686,0.0686 -0.10975,0 -0.20578,0.16463 -0.0823,0.15091 -0.0823,0.34297 v 0.0412 q 0.0137,0.2195 0.1509,0.38412 0.13719,0.15091 0.42529,0.16463 0.0549,0 0.0549,0.0686 0,0.0686 -0.0549,0.0686 h -2.52426 q -0.0549,0 -0.0549,-0.0686 0,-0.0686 0.0549,-0.0686 0.30181,-0.0137 0.439,-0.16463 0.13719,-0.16462 0.13719,-0.38412 v -0.0412 q 0,-0.19206 -0.096,-0.34297 -0.0823,-0.16463 -0.19206,-0.16463 -0.0549,0 -0.0549,-0.0686 0,-0.0686 0.0549,-0.0686 0.17835,-0.0137 0.2195,-0.13719 0.0412,-0.12347 0.0686,-0.5076 v -4.55464 q -0.0274,-0.38413 -0.0686,-0.50759 -0.0412,-0.12347 -0.2195,-0.13719 -0.0549,0 -0.0549,-0.0686 0,-0.0686 0.0549,-0.0686 0.10975,0 0.19206,-0.15091 0.096,-0.16462 0.096,-0.35669 v -0.0411 q 0,-0.23322 -0.13719,-0.38413 -0.13719,-0.16462 -0.439,-0.16462 -0.0549,0 -0.0549,-0.0686 0,-0.0686 0.0549,-0.0686 h 4.0882 q 0.0549,0 0.0549,0.0686 0,0.0686 -0.0549,0.0686 -0.23322,0 -0.23322,0.0686 0,0.0412 0.15091,0.24694 0.16462,0.20578 0.27437,0.48016 0.12347,0.26065 0.12347,0.63106 0,0.26066 -0.0823,0.58991 -0.10975,0.42528 -0.41157,0.82313 -0.30181,0.39784 -0.74081,0.67222 0.27438,0.23322 0.64478,0.23322 0.0823,0 0.24694,-0.0274 l 0.56247,2.83979 q 0.0823,0.2881 0.15091,0.39785 0.0823,0.10975 0.23322,0.12347 0.0686,0 0.0823,0.0686 0.0274,0.0686 -0.0412,0.0686 -0.0823,0 -0.13718,0.10975 -0.0549,0.096 -0.0549,0.24694 0,0.27438 0.17835,0.5076 0.17834,0.2195 0.53503,0.23322 z m -3.62176,-4.78786 q 0.49387,-0.32925 0.79569,-1.07007 0.31553,-0.74081 0.31553,-1.41304 0,-0.41156 -0.13719,-0.6585 -0.13719,-0.24694 -0.39784,-0.24694 -0.27438,0 -0.41157,0.16463 -0.12347,0.15091 -0.12347,0.37041 0,0.17834 0.0686,0.30181 0.0686,0.12347 0.17834,0.12347 0.0686,0 0.0686,0.0686 0,0.0686 -0.0686,0.0686 -0.17834,0.0137 -0.2195,0.13719 -0.0412,0.12346 -0.0686,0.50759 z m 7.28467,-3.2102 q 0.83685,0.69966 0.83685,2.41451 v 3.49829 q -0.0686,0.98775 -0.68594,1.63254 -0.60363,0.64478 -1.67369,0.58991 -1.00148,0 -1.55023,-0.5076 -0.53503,-0.5076 -0.53503,-1.57766 v -3.63548 q 0,-1.71485 0.83684,-2.41451 0.26066,-0.23322 0.26066,-0.27438 0,-0.0412 -0.13719,-0.0412 -0.0549,0 -0.0549,-0.0686 0,-0.0686 0.0549,-0.0686 h 1.26213 0.0686 1.19353 q 0.0549,0 0.0549,0.0686 0,0.0686 -0.0549,0.0686 h -0.0411 q -0.096,0 -0.096,0.0412 0,0.0412 0.26065,0.27438 z m -1.52278,7.84715 q 0.53503,0 0.82312,-0.34297 0.30182,-0.35669 0.30182,-0.85056 0,-0.5076 -0.31554,-0.87801 -0.30181,-0.38412 -0.85056,-0.38412 -0.10975,0 -0.10975,-0.0412 0,-0.0412 0.10975,-0.15091 0.41156,-0.41156 1.02891,-0.41156 v -2.86723 q -0.0274,-0.31553 -0.0823,-0.42528 -0.0549,-0.12347 -0.2195,-0.13719 -0.0549,0 -0.0549,-0.0686 0,-0.0686 0.0549,-0.0686 0.0823,0 0.12346,-0.10975 0.0549,-0.12347 0.0549,-0.30181 0,-0.37041 -0.19206,-0.67222 -0.17835,-0.30182 -0.53504,-0.30182 -0.35669,0 -0.54875,0.30182 -0.17834,0.30181 -0.17834,0.67222 0,0.17834 0.0412,0.30181 0.0549,0.10975 0.13719,0.10975 0.0686,0 0.0686,0.0686 0,0.0686 -0.0686,0.0686 -0.16462,0.0137 -0.2195,0.13719 -0.0549,0.10975 -0.0823,0.42528 v 4.19795 q 0.0274,0.38413 0.0686,0.5076 0.0412,0.12347 0.2195,0.13719 0.0686,0 0.0549,0.0686 0,0.0686 -0.0686,0.0686 -0.12347,0 -0.19206,0.0823 -0.0549,0.0823 -0.0549,0.2195 0,0.24694 0.17834,0.45272 0.17834,0.19206 0.5076,0.19206 z m 7.05146,-4.76042 q 0.32925,0.28809 0.439,0.78197 0.10975,0.49388 0.10975,1.26213 l -0.0137,0.68594 v 0.16462 q 0,0.57619 -0.13719,0.96032 -0.12347,0.37041 -0.27437,0.64478 -0.15091,0.26066 -0.15091,0.31554 0,0.096 0.30181,0.096 0.0549,0 0.0549,0.0686 0,0.0686 -0.0549,0.0686 h -4.63695 q -0.0549,0 -0.0549,-0.0686 0,-0.0686 0.0549,-0.0686 0.30181,-0.0137 0.439,-0.16463 0.13719,-0.16462 0.13719,-0.38412 v -0.0412 q 0,-0.19206 -0.096,-0.34297 -0.0823,-0.16463 -0.19207,-0.16463 -0.0549,0 -0.0549,-0.0686 0,-0.0686 0.0549,-0.0686 0.17835,-0.0137 0.2195,-0.13719 0.0412,-0.12347 0.0686,-0.5076 v -4.55464 q -0.0274,-0.38413 -0.0686,-0.50759 -0.0412,-0.12347 -0.2195,-0.13719 -0.0549,0 -0.0549,-0.0686 0,-0.0686 0.0549,-0.0686 0.10975,0 0.19207,-0.15091 0.096,-0.16462 0.096,-0.35669 v -0.0411 q 0,-0.23322 -0.13719,-0.38413 -0.13719,-0.16462 -0.439,-0.16462 -0.0549,0 -0.0549,-0.0686 0,-0.0686 0.0549,-0.0686 h 4.0882 q 0.0549,0 0.0549,0.0686 0,0.0686 -0.0549,0.0686 -0.24694,0 -0.24694,0.0823 0,0.0412 0.10975,0.24694 0.12347,0.19206 0.20579,0.439 0.0823,0.24694 0.0823,0.58991 0,0.35669 -0.0823,0.6585 -0.20579,0.76825 -0.76826,1.27585 0.34297,0.1509 0.63107,0.1509 0.16462,0 0.34297,-0.0412 z m -1.81088,-3.26508 q -0.2881,0.0137 -0.42529,0.17835 -0.13718,0.1509 -0.13718,0.37041 0,0.16462 0.0686,0.28809 0.0823,0.12347 0.17834,0.12347 0.0686,0 0.0686,0.0686 0,0.0686 -0.0686,0.0686 -0.17834,0.0137 -0.2195,0.13719 -0.0412,0.12346 -0.0686,0.50759 v 1.65998 q 0.53503,-0.30182 0.85056,-1.0152 0.31554,-0.71337 0.31554,-1.39931 0,-0.439 -0.15091,-0.71338 -0.13719,-0.27438 -0.41156,-0.27438 z m 0.97403,5.99512 v -0.71338 q 0,-0.6585 -0.096,-1.11122 -0.0823,-0.45272 -0.37041,-0.76825 -0.48016,0.31553 -1.11122,0.39784 v 2.49682 q 0.0274,0.38413 0.0686,0.5076 0.0412,0.12347 0.2195,0.13719 0.0686,0 0.0686,0.0686 0,0.0686 -0.0686,0.0686 -0.1509,0 -0.24693,0.12347 -0.0823,0.12347 -0.0823,0.30182 0,0.23322 0.15091,0.39784 0.15091,0.15091 0.439,0.15091 0.58991,0 0.80941,-0.439 0.2195,-0.439 0.2195,-1.4542 z m 7.47674,2.18129 q 0.0549,0 0.0686,0.0686 0.0137,0.0686 -0.0412,0.0686 h -2.52426 q -0.0549,0 -0.0686,-0.0686 -0.0137,-0.0686 0.0412,-0.0686 0.27437,0 0.38412,-0.15091 0.12347,-0.15091 0.096,-0.35669 l -0.0274,-0.13719 q -0.0549,-0.17834 -0.16463,-0.31553 -0.10975,-0.13719 -0.20578,-0.13719 -0.0549,0 -0.0686,-0.0686 -0.0137,-0.0686 0.0412,-0.0686 0.10975,-0.0137 0.15091,-0.0549 0.0549,-0.0549 0.0549,-0.17834 0,-0.0823 -0.0137,-0.17835 -0.0137,-0.096 -0.0274,-0.20578 l -0.096,-0.52131 q -0.12346,0.0686 -0.35668,0.096 h -0.0412 q -0.096,0 -0.096,-0.0274 0,-0.0412 0.12347,-0.096 0.2195,-0.096 0.2195,-0.39785 0,-0.20578 -0.12347,-0.35669 -0.10975,-0.1509 -0.32925,-0.1509 -0.0823,0 -0.12347,0.0137 -0.23322,0.0549 -0.37041,0.2195 -0.13719,0.16462 -0.2195,0.49387 l -0.15091,0.75454 q -0.0274,0.24694 -0.0274,0.31553 0,0.13719 0.0412,0.20578 0.0549,0.0549 0.16463,0.0686 0.0549,0 0.0549,0.0549 0,0.0274 -0.0274,0.0549 -0.0274,0.0274 -0.0549,0.0274 -0.096,0 -0.20578,0.12347 -0.096,0.12347 -0.15091,0.2881 l -0.0549,0.23322 q 0,0.45272 0.48015,0.45272 0.0549,0 0.0412,0.0686 0,0.0686 -0.0549,0.0686 h -2.1127 q -0.0549,0 -0.0549,-0.0686 0.0137,-0.0686 0.0686,-0.0686 0.34297,-0.0137 0.52131,-0.23322 0.17835,-0.23322 0.17835,-0.5076 0,-0.1509 -0.0549,-0.24694 -0.0412,-0.10975 -0.13719,-0.10975 -0.0549,0 -0.0549,-0.0549 0,-0.0274 0.0274,-0.0549 0.0274,-0.0274 0.0549,-0.0274 0.17835,-0.0137 0.23322,-0.12347 0.0686,-0.10975 0.17835,-0.52132 l 0.97403,-5.06223 0.0274,-0.15091 q 0.0137,-0.096 0.0549,-0.30182 0.0412,-0.2195 0.0412,-0.38412 0,-0.53503 -0.439,-0.53503 -0.0412,0 -0.0412,-0.0549 0,-0.0274 0.0137,-0.0549 0.0274,-0.0274 0.0549,-0.0274 h 2.51054 q 0.0549,0 0.0686,0.0686 0.0137,0.0686 -0.0412,0.0686 -0.439,0 -0.439,0.57618 0,0.10976 0.0274,0.30182 l 0.0549,0.31553 q 0.0137,0 0.0137,0.0274 l 1.00148,5.21314 q 0.096,0.38413 0.16462,0.5076 0.0686,0.12347 0.24694,0.13719 0.0686,0 0.0823,0.0686 0.0137,0.0686 -0.0549,0.0686 -0.096,0 -0.15091,0.10975 -0.0549,0.10975 -0.0549,0.26066 0,0.27438 0.17834,0.49388 0.17834,0.2195 0.52131,0.23322 z m -3.4297,-4.04705 q 0.096,-0.0274 0.2881,-0.0274 0.24694,0 0.42528,0.0686 l -0.35669,-1.90691 z m 8.32731,-0.86428 q 0.32925,0.28809 0.439,0.78197 0.10975,0.49388 0.10975,1.26213 l -0.0137,0.68594 v 0.16462 q 0,0.57619 -0.13718,0.96032 -0.12347,0.37041 -0.27438,0.64478 -0.15091,0.26066 -0.15091,0.31554 0,0.096 0.30182,0.096 0.0549,0 0.0549,0.0686 0,0.0686 -0.0549,0.0686 h -4.63696 q -0.0549,0 -0.0549,-0.0686 0,-0.0686 0.0549,-0.0686 0.30182,-0.0137 0.43901,-0.16463 0.13718,-0.16462 0.13718,-0.38412 v -0.0412 q 0,-0.19206 -0.096,-0.34297 -0.0823,-0.16463 -0.19206,-0.16463 -0.0549,0 -0.0549,-0.0686 0,-0.0686 0.0549,-0.0686 0.17834,-0.0137 0.2195,-0.13719 0.0412,-0.12347 0.0686,-0.5076 v -4.55464 q -0.0274,-0.38413 -0.0686,-0.50759 -0.0412,-0.12347 -0.2195,-0.13719 -0.0549,0 -0.0549,-0.0686 0,-0.0686 0.0549,-0.0686 0.10975,0 0.19206,-0.15091 0.096,-0.16462 0.096,-0.35669 v -0.0411 q 0,-0.23322 -0.13718,-0.38413 -0.13719,-0.16462 -0.43901,-0.16462 -0.0549,0 -0.0549,-0.0686 0,-0.0686 0.0549,-0.0686 h 4.08821 q 0.0549,0 0.0549,0.0686 0,0.0686 -0.0549,0.0686 -0.24694,0 -0.24694,0.0823 0,0.0412 0.10975,0.24694 0.12347,0.19206 0.20578,0.439 0.0823,0.24694 0.0823,0.58991 0,0.35669 -0.0823,0.6585 -0.20578,0.76825 -0.76825,1.27585 0.34297,0.1509 0.63106,0.1509 0.16463,0 0.34297,-0.0412 z m -1.81088,-3.26508 q -0.28809,0.0137 -0.42528,0.17835 -0.13719,0.1509 -0.13719,0.37041 0,0.16462 0.0686,0.28809 0.0823,0.12347 0.17835,0.12347 0.0686,0 0.0686,0.0686 0,0.0686 -0.0686,0.0686 -0.17835,0.0137 -0.2195,0.13719 -0.0412,0.12346 -0.0686,0.50759 v 1.65998 q 0.53504,-0.30182 0.85057,-1.0152 0.31553,-0.71337 0.31553,-1.39931 0,-0.439 -0.15091,-0.71338 -0.13718,-0.27438 -0.41156,-0.27438 z m 0.97403,5.99512 v -0.71338 q 0,-0.6585 -0.096,-1.11122 -0.0823,-0.45272 -0.3704,-0.76825 -0.48016,0.31553 -1.11123,0.39784 v 2.49682 q 0.0274,0.38413 0.0686,0.5076 0.0412,0.12347 0.2195,0.13719 0.0686,0 0.0686,0.0686 0,0.0686 -0.0686,0.0686 -0.15091,0 -0.24694,0.12347 -0.0823,0.12347 -0.0823,0.30182 0,0.23322 0.1509,0.39784 0.15091,0.15091 0.439,0.15091 0.58991,0 0.80941,-0.439 0.2195,-0.439 0.2195,-1.4542 z m 6.51643,2.14013 q 0.096,0.096 0.096,0.12347 0,0.0412 -0.0823,0.0549 -0.0823,0 -0.2195,0 h -0.69966 -1.23469 -2.66145 q -0.0549,0 -0.0549,-0.0686 0,-0.0686 0.0549,-0.0686 0.30182,-0.0137 0.43901,-0.16463 0.13718,-0.16462 0.13718,-0.38412 v -0.0412 q 0,-0.19206 -0.096,-0.34297 -0.0823,-0.16463 -0.19206,-0.16463 -0.0549,0 -0.0549,-0.0686 0,-0.0686 0.0549,-0.0686 0.16463,-0.0137 0.20578,-0.12347 0.0412,-0.12347 0.0823,-0.52132 v -4.55464 q -0.0274,-0.38413 -0.0686,-0.50759 -0.0412,-0.12347 -0.2195,-0.13719 -0.0549,0 -0.0549,-0.0686 0,-0.0686 0.0549,-0.0686 0.10975,0 0.19206,-0.15091 0.096,-0.16462 0.096,-0.35669 v -0.0411 q 0,-0.23322 -0.13718,-0.38413 -0.13719,-0.16462 -0.43901,-0.16462 -0.0549,0 -0.0549,-0.0686 0,-0.0686 0.0549,-0.0686 h 2.52426 q 0.0549,0 0.0549,0.0686 0,0.0686 -0.0549,0.0686 -0.28809,0 -0.42528,0.16462 -0.13719,0.15091 -0.15091,0.38413 v 0.0411 q 0,0.19207 0.0823,0.35669 0.096,0.15091 0.20578,0.15091 0.0686,0 0.0686,0.0686 0,0.0686 -0.0686,0.0686 -0.17835,0.0137 -0.2195,0.13719 -0.0412,0.12346 -0.0686,0.50759 v 4.55464 q 0.0274,0.38413 0.0686,0.5076 0.0411,0.12347 0.2195,0.13719 0.0686,0 0.0549,0.0686 0,0.0686 -0.0686,0.0686 -0.13719,0 -0.23322,0.12347 -0.096,0.12347 -0.096,0.2881 0,0.2195 0.16462,0.38412 0.17835,0.15091 0.5076,0.15091 0.45272,0 0.6585,-0.28809 0.20578,-0.30182 0.39785,-0.9466 0.17834,-0.57619 0.37041,-0.97404 0.19206,-0.39784 0.56247,-0.71337 0.0686,-0.0686 0.12347,-0.0549 0.0549,0 0.0137,0.0686 -0.35668,0.61734 -0.35668,1.41303 0,0.53503 0.13718,0.98776 0.15091,0.45272 0.32925,0.61734 z m 4.93878,-8.40962 q 0.0549,0 0.0549,0.0686 0,0.0686 -0.0549,0.0686 -0.38413,0.0137 -0.60363,0.28809 -0.20578,0.27438 -0.20578,0.56247 0,0.24694 0.12347,0.24694 0.0686,0 0.0686,0.0686 0,0.0686 -0.0686,0.0686 -0.15091,0.0137 -0.23322,0.10975 -0.0823,0.0823 -0.16463,0.30181 l -1.11122,3.67664 v 1.11122 q 0.0274,0.38413 0.0686,0.5076 0.0412,0.12347 0.2195,0.13719 0.0686,0 0.0686,0.0686 0,0.0686 -0.0686,0.0686 -0.10975,0 -0.20578,0.16463 -0.0823,0.15091 -0.0823,0.34297 v 0.0412 q 0.0137,0.2195 0.15091,0.38412 0.13718,0.15091 0.42528,0.16463 0.0549,0 0.0549,0.0686 0,0.0686 -0.0549,0.0686 h -2.52426 q -0.0549,0 -0.0549,-0.0686 0,-0.0686 0.0549,-0.0686 0.30181,-0.0137 0.439,-0.16463 0.13719,-0.16462 0.13719,-0.38412 v -0.0412 q 0,-0.19206 -0.096,-0.34297 -0.0823,-0.16463 -0.19206,-0.16463 -0.0549,0 -0.0549,-0.0686 0,-0.0686 0.0549,-0.0686 0.17834,-0.0137 0.2195,-0.13719 0.0412,-0.12347 0.0686,-0.5076 v -1.13866 l -1.05635,-3.59432 q -0.096,-0.26066 -0.19206,-0.35669 -0.0823,-0.096 -0.24694,-0.10975 -0.0549,0 -0.0549,-0.0686 0,-0.0686 0.0549,-0.0686 0.12347,0 0.12347,-0.24694 0,-0.28809 -0.2195,-0.56247 -0.20578,-0.27438 -0.58991,-0.28809 -0.0549,0 -0.0549,-0.0686 0,-0.0686 0.0549,-0.0686 h 2.56542 q 0.0549,0 0.0549,0.0686 0,0.0686 -0.0549,0.0686 -0.42529,0 -0.42529,0.35668 0,0.24694 0.16463,0.49388 0.17834,0.24694 0.32925,0.24694 0.0686,0 0.0686,0.0686 0,0.0686 -0.0686,0.0686 -0.10975,0.0137 -0.15091,0.0549 -0.0412,0.0274 -0.0412,0.12347 0,0.0412 0.0549,0.31553 l 0.58991,1.97551 0.56247,-1.86576 q 0.0686,-0.34297 0.0686,-0.439 0,-0.1509 -0.17835,-0.16462 -0.0549,0 -0.0549,-0.0686 0,-0.0686 0.0549,-0.0686 0.15091,0 0.31553,-0.24694 0.17835,-0.24694 0.17835,-0.49388 0,-0.35668 -0.42528,-0.35668 -0.0549,0 -0.0549,-0.0686 0,-0.0686 0.0549,-0.0686 z m 9.13674,-1.27585 q 0,0.15091 0.0823,1.33072 0.10975,1.31701 0.12346,1.74229 0,0.0686 -0.0686,0.0823 -0.0549,0.0137 -0.0686,-0.0686 -0.0549,-0.19206 -0.17835,-0.75454 -0.16462,-0.71337 -0.30181,-1.12494 -0.12347,-0.42528 -0.35669,-0.72709 -0.23322,-0.31554 -0.58991,-0.37041 -0.0686,-0.0137 -0.17834,-0.0137 -0.30182,0 -0.45272,0.15091 -0.13719,0.1509 -0.13719,0.35669 0,0.17834 0.096,0.31553 0.096,0.13719 0.24694,0.13719 0.0686,0 0.0686,0.0686 0,0.0686 -0.0686,0.0686 -0.17835,0.0137 -0.2195,0.13719 -0.0412,0.12347 -0.0686,0.5076 v 2.59285 q 0.46644,-0.16462 0.69966,-0.46644 0.23322,-0.31553 0.37041,-0.878 0.0137,-0.0549 0.0686,-0.0412 0.0549,0 0.0549,0.0549 0,1.28956 0.10975,3.40226 0,0.0549 -0.0549,0.0686 -0.0411,0 -0.0549,-0.0686 -0.12347,-0.96032 -0.37041,-1.34444 -0.23322,-0.39785 -0.82313,-0.39785 v 4.32142 q 0,0.26066 0.0823,0.45272 0.096,0.19207 0.20578,0.19207 0.0686,0 0.0686,0.0686 0,0.0686 -0.0686,0.0686 -0.10975,0 -0.20578,0.16462 -0.0823,0.16463 -0.0823,0.35669 0,0.24694 0.13719,0.39785 0.13719,0.16462 0.439,0.17834 0.0549,0 0.0549,0.0686 0,0.0686 -0.0549,0.0686 h -2.52426 q -0.0549,0 -0.0549,-0.0686 0,-0.0686 0.0549,-0.0686 0.30182,0 0.43901,-0.16463 0.13718,-0.1509 0.13718,-0.38412 v -0.0412 q 0,-0.19206 -0.096,-0.35669 -0.0823,-0.1509 -0.19206,-0.1509 -0.0549,0 -0.0549,-0.0686 0,-0.0686 0.0549,-0.0686 0.17834,-0.0137 0.2195,-0.13719 0.0412,-0.12347 0.0686,-0.5076 v -4.07448 q -0.63106,0.16463 -1.08378,0.16463 -0.78197,0 -0.7271,-0.64479 -0.26066,-0.13719 -0.39784,-0.35669 -0.12347,-0.2195 -0.12347,-0.439 0,-0.23322 0.12347,-0.38412 0.12347,-0.15091 0.30181,-0.12347 0.096,0.0137 0.16463,0.0823 0.0686,0.0549 0.0686,0.15091 0,0.10975 -0.10975,0.19206 -0.12347,0.12347 -0.12347,0.26066 0,0.2195 0.24694,0.42528 0.26066,0.19206 0.69966,0.30181 0.439,0.10975 0.96031,0.0823 v -2.88095 q -0.0274,-0.38413 -0.0686,-0.5076 -0.0412,-0.12347 -0.2195,-0.13719 -0.0549,0 -0.0549,-0.0686 0,-0.0686 0.0549,-0.0686 0.10975,0 0.19206,-0.15091 0.0823,-0.15091 0.0823,-0.34297 0,-0.24694 -0.1509,-0.41156 -0.13719,-0.16463 -0.46644,-0.16463 -0.5076,0 -0.76825,0.27438 -0.26066,0.26065 -0.26066,0.6585 0,0.42528 0.24694,0.75453 0.26065,0.32925 0.63106,0.32925 0.20578,0 0.45272,-0.12347 0.0549,-0.0411 0.0686,-0.0274 0.0274,0 -0.0274,0.0823 -0.13719,0.20578 -0.41157,0.34297 -0.27437,0.13719 -0.57618,0.13719 -0.2881,0 -0.54876,-0.15091 -0.24694,-0.15091 -0.39784,-0.46644 -0.12347,-0.23322 -0.12347,-0.52131 0,-0.57619 0.45272,-1.01519 0.46644,-0.43901 1.33072,-0.43901 h 2.64773 0.63107 0.49387 0.16463 q 0.0549,0 0.0549,0.0412 0.0137,0.0412 0.0137,0.13719 z m 5.47379,9.72663 q 0.0549,0 0.0686,0.0686 0.0137,0.0686 -0.0412,0.0686 h -2.52426 q -0.0549,0 -0.0686,-0.0686 -0.0137,-0.0686 0.0412,-0.0686 0.27438,0 0.38413,-0.15091 0.12347,-0.15091 0.096,-0.35669 l -0.0274,-0.13719 q -0.0549,-0.17834 -0.16463,-0.31553 -0.10975,-0.13719 -0.20578,-0.13719 -0.0549,0 -0.0686,-0.0686 -0.0137,-0.0686 0.0412,-0.0686 0.10975,-0.0137 0.15091,-0.0549 0.0549,-0.0549 0.0549,-0.17834 0,-0.0823 -0.0137,-0.17835 -0.0137,-0.096 -0.0274,-0.20578 l -0.096,-0.52131 q -0.12347,0.0686 -0.35668,0.096 h -0.0412 q -0.096,0 -0.096,-0.0274 0,-0.0412 0.12347,-0.096 0.2195,-0.096 0.2195,-0.39785 0,-0.20578 -0.12347,-0.35669 -0.10975,-0.1509 -0.32925,-0.1509 -0.0823,0 -0.12347,0.0137 -0.23322,0.0549 -0.37041,0.2195 -0.13719,0.16462 -0.2195,0.49387 l -0.15091,0.75454 q -0.0274,0.24694 -0.0274,0.31553 0,0.13719 0.0412,0.20578 0.0549,0.0549 0.16463,0.0686 0.0549,0 0.0549,0.0549 0,0.0274 -0.0274,0.0549 -0.0274,0.0274 -0.0549,0.0274 -0.096,0 -0.20578,0.12347 -0.096,0.12347 -0.15091,0.2881 l -0.0549,0.23322 q 0,0.45272 0.48015,0.45272 0.0549,0 0.0412,0.0686 0,0.0686 -0.0549,0.0686 h -2.11269 q -0.0549,0 -0.0549,-0.0686 0.0137,-0.0686 0.0686,-0.0686 0.34297,-0.0137 0.52131,-0.23322 0.17835,-0.23322 0.17835,-0.5076 0,-0.1509 -0.0549,-0.24694 -0.0412,-0.10975 -0.13719,-0.10975 -0.0549,0 -0.0549,-0.0549 0,-0.0274 0.0274,-0.0549 0.0274,-0.0274 0.0549,-0.0274 0.17835,-0.0137 0.23322,-0.12347 0.0686,-0.10975 0.17835,-0.52132 l 0.97403,-5.06223 0.0274,-0.15091 q 0.0137,-0.096 0.0549,-0.30182 0.0412,-0.2195 0.0412,-0.38412 0,-0.53503 -0.439,-0.53503 -0.0412,0 -0.0412,-0.0549 0,-0.0274 0.0137,-0.0549 0.0274,-0.0274 0.0549,-0.0274 h 2.51054 q 0.0549,0 0.0686,0.0686 0.0137,0.0686 -0.0412,0.0686 -0.439,0 -0.439,0.57618 0,0.10976 0.0274,0.30182 l 0.0549,0.31553 q 0.0137,0 0.0137,0.0274 l 1.00148,5.21314 q 0.096,0.38413 0.16462,0.5076 0.0686,0.12347 0.24694,0.13719 0.0686,0 0.0823,0.0686 0.0137,0.0686 -0.0549,0.0686 -0.096,0 -0.15091,0.10975 -0.0549,0.10975 -0.0549,0.26066 0,0.27438 0.17834,0.49388 0.17834,0.2195 0.52131,0.23322 z m -3.4297,-4.04705 q 0.096,-0.0274 0.2881,-0.0274 0.24694,0 0.42528,0.0686 l -0.35669,-1.90691 z m 6.48899,4.04705 q 0.0549,0 0.0549,0.0686 0,0.0686 -0.0549,0.0686 h -2.52426 q -0.0549,0 -0.0549,-0.0686 0,-0.0686 0.0549,-0.0686 0.30182,-0.0137 0.439,-0.16463 0.13719,-0.16462 0.13719,-0.38412 v -0.0412 q 0,-0.19206 -0.096,-0.34297 -0.0823,-0.16463 -0.19206,-0.16463 -0.0549,0 -0.0549,-0.0686 0,-0.0686 0.0549,-0.0686 0.17834,-0.0137 0.2195,-0.13719 0.0411,-0.12347 0.0686,-0.5076 v -4.55464 q -0.0274,-0.38413 -0.0686,-0.50759 -0.0412,-0.12347 -0.2195,-0.13719 -0.0549,0 -0.0549,-0.0686 0,-0.0686 0.0549,-0.0686 0.10975,0 0.19206,-0.15091 0.096,-0.16462 0.096,-0.35669 v -0.0411 q 0,-0.23322 -0.13719,-0.38413 -0.13718,-0.16462 -0.439,-0.16462 -0.0549,0 -0.0549,-0.0686 0,-0.0686 0.0549,-0.0686 h 2.52426 q 0.0549,0 0.0549,0.0686 0,0.0686 -0.0549,0.0686 -0.28809,0 -0.42528,0.16462 -0.13719,0.15091 -0.15091,0.38413 v 0.0411 q 0,0.19207 0.0823,0.35669 0.096,0.15091 0.20579,0.15091 0.0686,0 0.0686,0.0686 0,0.0686 -0.0686,0.0686 -0.17835,0.0137 -0.2195,0.13719 -0.0412,0.12346 -0.0686,0.50759 v 4.55464 q 0.0274,0.38413 0.0686,0.5076 0.0411,0.12347 0.2195,0.13719 0.0686,0 0.0686,0.0686 0,0.0686 -0.0686,0.0686 -0.10975,0 -0.20579,0.16463 -0.0823,0.15091 -0.0823,0.34297 v 0.0412 q 0.0137,0.2195 0.15091,0.38412 0.13719,0.15091 0.42528,0.16463 z m 6.09115,0 q 0.0549,0 0.0549,0.0686 0.0137,0.0686 -0.0411,0.0686 h -2.52426 q -0.0549,0 -0.0686,-0.0686 0,-0.0686 0.0549,-0.0686 0.24694,0 0.35669,-0.12347 0.12347,-0.13719 0.10975,-0.32925 l -0.0549,-0.24694 q -0.0686,-0.16463 -0.16462,-0.27438 -0.096,-0.12347 -0.19206,-0.12347 -0.0549,0 -0.0823,-0.0686 -0.0137,-0.0686 0.0412,-0.0686 0.12347,-0.0137 0.16462,-0.0549 0.0412,-0.0549 0.0412,-0.17834 0,-0.13719 -0.0137,-0.2195 l -0.60362,-2.86723 q -0.30182,0.10975 -0.69966,0.17834 v 2.49682 q 0.0274,0.38413 0.0686,0.5076 0.0412,0.12347 0.2195,0.13719 0.0686,0 0.0686,0.0686 0,0.0686 -0.0686,0.0686 -0.10975,0 -0.20578,0.16463 -0.0823,0.15091 -0.0823,0.34297 v 0.0412 q 0.0137,0.2195 0.1509,0.38412 0.13719,0.15091 0.42529,0.16463 0.0549,0 0.0549,0.0686 0,0.0686 -0.0549,0.0686 h -2.52426 q -0.0549,0 -0.0549,-0.0686 0,-0.0686 0.0549,-0.0686 0.30181,-0.0137 0.439,-0.16463 0.13719,-0.16462 0.13719,-0.38412 v -0.0412 q 0,-0.19206 -0.096,-0.34297 -0.0823,-0.16463 -0.19206,-0.16463 -0.0549,0 -0.0549,-0.0686 0,-0.0686 0.0549,-0.0686 0.17835,-0.0137 0.2195,-0.13719 0.0412,-0.12347 0.0686,-0.5076 v -4.55464 q -0.0274,-0.38413 -0.0686,-0.50759 -0.0412,-0.12347 -0.2195,-0.13719 -0.0549,0 -0.0549,-0.0686 0,-0.0686 0.0549,-0.0686 0.10975,0 0.19206,-0.15091 0.096,-0.16462 0.096,-0.35669 v -0.0411 q 0,-0.23322 -0.13719,-0.38413 -0.13719,-0.16462 -0.439,-0.16462 -0.0549,0 -0.0549,-0.0686 0,-0.0686 0.0549,-0.0686 h 4.0882 q 0.0549,0 0.0549,0.0686 0,0.0686 -0.0549,0.0686 -0.23322,0 -0.23322,0.0686 0,0.0412 0.15091,0.24694 0.16462,0.20578 0.27437,0.48016 0.12347,0.26065 0.12347,0.63106 0,0.26066 -0.0823,0.58991 -0.10975,0.42528 -0.41157,0.82313 -0.30181,0.39784 -0.74081,0.67222 0.27438,0.23322 0.64478,0.23322 0.0823,0 0.24694,-0.0274 l 0.56247,2.83979 q 0.0823,0.2881 0.15091,0.39785 0.0823,0.10975 0.23322,0.12347 0.0686,0 0.0823,0.0686 0.0274,0.0686 -0.0411,0.0686 -0.0823,0 -0.13719,0.10975 -0.0549,0.096 -0.0549,0.24694 0,0.27438 0.17835,0.5076 0.17834,0.2195 0.53503,0.23322 z m -3.62176,-4.78786 q 0.49387,-0.32925 0.79569,-1.07007 0.31553,-0.74081 0.31553,-1.41304 0,-0.41156 -0.13719,-0.6585 -0.13719,-0.24694 -0.39784,-0.24694 -0.27438,0 -0.41157,0.16463 -0.12347,0.15091 -0.12347,0.37041 0,0.17834 0.0686,0.30181 0.0686,0.12347 0.17834,0.12347 0.0686,0 0.0686,0.0686 0,0.0686 -0.0686,0.0686 -0.17834,0.0137 -0.2195,0.13719 -0.0412,0.12346 -0.0686,0.50759 z m 4.89761,-3.2102 q 0,0.54875 0.096,0.74081 0,0.0137 0.0137,0.0412 0.0137,0.0274 -0.0137,0.0274 -0.0137,0 -0.0412,0 H 443.31 q -0.0412,0 -0.0549,0 -0.0137,-0.0137 0,-0.0274 0.0137,-0.0274 0.0137,-0.0412 0.096,-0.19206 0.096,-0.74081 v -0.6585 q 0,-0.54876 -0.096,-0.74082 0,-0.0137 -0.0137,-0.0412 -0.0137,-0.0274 0,-0.0274 0.0274,0 0.0549,0 h 0.6585 q 0.0412,0 0.0549,0.0137 0.0137,0 0,0.0274 -0.0137,0.0137 -0.0137,0.0274 -0.096,0.19206 -0.096,0.74082 z m 0.93288,0 q 0,0.54875 0.096,0.74081 0,0.0137 0.0137,0.0412 0.0137,0.0274 -0.0137,0.0274 -0.0137,0 -0.0411,0 h -0.65851 q -0.0411,0 -0.0549,0 -0.0137,-0.0137 0,-0.0274 0.0137,-0.0274 0.0137,-0.0412 0.096,-0.19206 0.096,-0.74081 v -0.6585 q 0,-0.54876 -0.096,-0.74082 0,-0.0137 -0.0137,-0.0412 -0.0137,-0.0274 0,-0.0274 0.0274,0 0.0549,0 h 0.65851 q 0.0411,0 0.0549,0.0137 0.0137,0 0,0.0274 -0.0137,0.0137 -0.0137,0.0274 -0.096,0.19206 -0.096,0.74082 z"
       id="text3"
       style="font-size:13.7188px;font-family:Jamesoon;-inkscape-font-specification:'Jamesoon, Normal';stroke-width:1.14323"
       aria-label="&quot;Probably Fair&quot;" />
    <path
       d="m 350.56992,300.97447 c -1.10016,-0.39605 -1.62824,-1.23218 -1.62824,-2.37635 v -3.38851 c 0,-2.37636 0.30804,-3.52053 2.24433,-3.52053 1.49623,0 1.93629,0.74811 1.93629,4.31265 0,2.11232 -0.92413,2.59639 -1.32019,3.60854 2.42036,-0.39606 4.79672,1.58424 8.18522,1.71626 -0.96814,-1.14417 -1.71625,-4.0046 -1.71625,-5.54483 v -4.97275 c 0,-1.54023 0.74811,-2.6844 1.71625,-3.82857 h -8.58128 c -5.06076,0 -8.05321,1.3642 -8.05321,7.26109 v 5.80887 c 0,2.37635 1.89228,4.26864 4.22463,5.14877 l 5.14878,1.9803 c 1.10016,0.44006 1.67225,1.14417 1.67225,2.33235 v 4.40066 c 0,2.37635 -1.14418,2.64039 -2.55239,2.64039 -2.11231,0 -2.46437,-0.7041 -2.46437,-2.90443 0,-3.52053 0.88014,-4.00461 1.2762,-5.01676 -1.49623,-0.088 -4.09262,-2.77241 -7.08507,-2.77241 -1.49622,0 -3.12447,0.6601 -4.75271,2.64039 0.83613,-0.30804 1.54023,-0.48407 2.15632,-0.48407 2.86043,0 3.25649,3.21248 3.25649,4.48867 v 4.92874 c 0,1.54023 -0.79212,2.68441 -1.71626,3.87258 h 9.41742 c 5.06076,0 8.0532,-2.86043 8.0532,-7.30509 v -5.80887 c 0,-1.89229 -1.32019,-4.35666 -3.08046,-5.01676 z m 11.39775,-11.88178 c 0.92413,1.18818 1.71625,2.33235 1.71625,3.87258 v 12.01381 c 0,1.54023 -0.79212,2.7284 -1.71625,3.87258 h 1.71625 v 6.42496 c 0,1.54023 -0.79212,2.72841 -1.71625,3.87258 h 8.58128 c -0.92414,-1.14417 -1.71626,-2.33235 -1.71626,-3.87258 v -6.42496 h 2.02431 c 5.67685,0 8.49327,-2.59639 8.49327,-7.3051 v -5.14877 c 0,-6.24894 -2.81642,-7.3051 -8.49327,-7.3051 z m 6.86502,15.05026 v -10.29754 h 1.84828 c 2.37636,0 3.52053,1.14417 3.52053,3.52052 v 3.25649 c 0,2.33235 -1.14417,3.52053 -3.52053,3.52053 z m 19.05485,11.13367 v -9.63745 c 1.84828,0.52808 3.74056,1.49623 5.36881,2.06831 v 7.56914 c 0,1.54023 -0.79212,2.72841 -1.71626,3.87258 h 8.58129 c -0.96815,-1.14417 -1.71626,-2.33235 -1.71626,-3.87258 v -8.93334 c 1.05616,-1.58424 1.54023,-3.87258 1.49622,-5.41281 h -0.088 c -0.30805,0.52808 -0.70411,1.40821 -1.40821,2.0243 v -9.9895 c 0,-1.54023 0.74811,-2.6844 1.71626,-3.87258 h -8.58129 c 0.92414,1.18818 1.71626,2.33235 1.71626,3.87258 v 10.25354 c -1.76027,-0.57208 -3.60854,-1.54023 -5.36881,-2.0243 v -8.22924 c 0,-1.54023 0.79212,-2.6844 1.71626,-3.87258 h -8.58129 c 0.92414,1.18818 1.71626,2.33235 1.71626,3.87258 v 9.41742 c -1.45222,1.76026 -1.62825,4.53268 -1.62825,5.72085 h 0.088 c 0.22003,-0.92413 0.79212,-1.67225 1.54023,-2.11231 v 9.28539 c 0,1.54023 -0.79212,2.72841 -1.71626,3.87258 h 8.58129 c -0.92414,-1.14417 -1.71626,-2.33235 -1.71626,-3.87258 z m 20.85911,-0.83613 v -9.68145 c 0.92414,0.70411 1.76026,1.40821 2.72841,1.40821 2.20033,0 3.3445,-3.3445 3.43251,-5.28079 l -0.088,-0.044 c -0.48407,0.96814 -1.3642,1.05615 -1.89228,1.05615 -1.89229,0 -3.03646,-0.92414 -4.18063,-1.71625 v -6.33695 h 2.6404 c 1.32019,0 1.23218,1.23218 1.23218,1.98029 0,2.28835 -0.92414,2.77242 -1.27619,3.78457 2.37636,-0.39606 4.75271,1.58424 8.14122,1.71626 -0.96815,-1.14417 -1.71626,-4.0046 -1.71626,-5.54483 v -2.81643 c 0,-1.54023 0.74811,-2.6844 1.71626,-3.87258 h -17.60264 c 0.92414,1.18818 1.71626,2.33235 1.71626,3.87258 v 7.3051 c -1.36421,1.49622 -1.71626,4.13662 -1.71626,5.3688 h 0.088 c 0.22004,-0.96814 0.88014,-1.49622 1.62825,-1.76026 v 11.39771 c 0,1.54023 -0.79212,2.72841 -1.71626,3.87258 h 17.60264 c -0.96815,-1.14417 -1.71626,-2.33235 -1.71626,-3.87258 v -2.77242 c 0,-1.54023 0.74811,-4.44466 1.71626,-5.58883 -3.56453,-0.48408 -5.94089,1.58423 -8.14122,1.71625 0.35205,1.01215 1.27619,1.49623 1.27619,3.82858 0,0.7041 0.088,1.98029 -1.23218,1.98029 z m 20.15503,-6.86503 c 0.79211,0 1.32019,0.35206 1.62824,1.10017 l 2.6404,6.60099 c 0.66009,1.58424 0.52807,2.55238 -0.30805,3.87258 2.42036,0 4.53268,2.46437 8.05321,2.46437 0.6601,0 1.3642,-0.088 2.15632,-0.30805 -1.89228,-0.48407 -3.82857,-4.53268 -4.40066,-6.0289 l -1.62824,-3.96059 c -0.79212,-1.93629 -0.79212,-3.87259 0.22003,-4.79672 -1.3202,0.6601 -3.08046,0.74811 -4.26864,0.7041 3.38851,-0.83612 5.58884,-3.38851 5.58884,-6.95304 v -3.87258 c 0,-4.84073 -2.81643,-7.3051 -8.49328,-7.3051 h -8.88933 c 0.92414,1.18818 1.71626,2.33235 1.71626,3.87258 v 10.73761 c 0,1.54024 -0.79212,2.68441 -1.71626,3.87258 h 1.71626 v 7.70116 c 0,1.54023 -0.79212,2.72841 -1.71626,3.87258 h 8.58129 c -0.92414,-1.14417 -1.71626,-2.33235 -1.71626,-3.87258 v -7.70116 z m -0.83613,-4.75271 v -8.97734 h 1.84828 c 2.37635,0 3.52053,0.7041 3.52053,3.08046 v 2.37635 c 0,2.37636 -1.14418,3.52053 -3.52053,3.52053 z m 20.90311,11.61774 v -9.68145 c 0.92414,0.70411 1.76027,1.40821 2.72841,1.40821 2.20033,0 3.34451,-3.3445 3.43252,-5.28079 l -0.088,-0.044 c -0.48408,0.96814 -1.36421,1.05615 -1.89229,1.05615 -1.89228,0 -3.03645,-0.92414 -4.18063,-1.71625 v -6.33695 h 2.6404 c 1.3202,0 1.23219,1.23218 1.23219,1.98029 0,2.28835 -0.92414,2.77242 -1.2762,3.78457 2.37636,-0.39606 4.75272,1.58424 8.14123,1.71626 -0.96815,-1.14417 -1.71626,-4.0046 -1.71626,-5.54483 v -2.81643 c 0,-1.54023 0.74811,-2.6844 1.71626,-3.87258 h -17.60264 c 0.92413,1.18818 1.71625,2.33235 1.71625,3.87258 v 7.3051 c -1.3642,1.49622 -1.71625,4.13662 -1.71625,5.3688 h 0.088 c 0.22003,-0.96814 0.88013,-1.49622 1.62824,-1.76026 v 11.39771 c 0,1.54023 -0.79212,2.72841 -1.71625,3.87258 h 17.60264 c -0.96815,-1.14417 -1.71626,-2.33235 -1.71626,-3.87258 v -2.77242 c 0,-1.54023 0.74811,-4.44466 1.71626,-5.58883 -3.56454,-0.48408 -5.9409,1.58423 -8.14123,1.71625 0.35206,1.01215 1.2762,1.49623 1.2762,3.82858 0,0.7041 0.088,1.98029 -1.23219,1.98029 z m 20.46308,-13.46602 c -1.10017,-0.39605 -1.62825,-1.23218 -1.62825,-2.37635 v -1.23219 c 0,-2.37635 0.30805,-3.52052 2.24434,-3.52052 1.49622,0 1.93629,0.7041 1.93629,2.15632 0,2.11232 -0.92414,2.59639 -1.27619,3.60854 2.37635,-0.39606 4.75271,1.58424 8.14122,1.71626 -0.96815,-1.14417 -1.71626,-4.0046 -1.71626,-5.54483 v -2.81643 c 0,-1.54023 0.74811,-2.6844 1.71626,-3.87258 h -8.58129 c -5.06076,0 -7.61314,1.40821 -7.61314,7.3051 v 3.65255 c 0,2.37635 1.45222,4.26864 3.78457,5.14877 l 5.14877,1.9803 c 1.10017,0.44006 1.67225,1.14417 1.67225,2.33235 v 2.24433 c 0,2.37636 -1.14417,2.6844 -2.50838,2.6844 -2.15632,0 -2.50837,-0.74811 -2.50837,-2.11231 0,-2.20033 0.88013,-2.68441 1.27619,-3.69656 -2.20033,-0.13202 -4.57669,-2.20033 -8.14122,-1.71625 0.92414,1.14417 1.71626,4.0486 1.71626,5.58883 v 2.77242 c 0,1.54023 -0.79212,2.72841 -1.71626,3.87258 h 9.46142 c 5.06076,0 7.56913,-2.81642 7.56913,-7.3051 v -3.65254 c 0,-1.89229 -0.83612,-4.35666 -2.59639,-5.01676 z"
       id="text6"
       style="font-size:44.0066px;font-family:Firlest;-inkscape-font-specification:'Firlest, Normal';stroke-width:3.66722"
       aria-label="Spheres" />
  </g>
</svg>
